<svg width="16" height="16" viewBox="0 0 16 16" fill="none" xmlns="http://www.w3.org/2000/svg">
<path d="M8 16C12.4183 16 16 12.4183 16 8C16 3.58172 12.4183 0 8 0C3.58172 0 0 3.58172 0 8C0 12.4183 3.58172 16 8 16Z" fill="url(#paint0_linear_1684_26399)"/>
<path d="M8 16C12.4183 16 16 12.4183 16 8C16 3.58172 12.4183 0 8 0C3.58172 0 0 3.58172 0 8C0 12.4183 3.58172 16 8 16Z" fill="url(#paint1_linear_1684_26399)"/>
<path d="M8 16C12.4183 16 16 12.4183 16 8C16 3.58172 12.4183 0 8 0C3.58172 0 0 3.58172 0 8C0 12.4183 3.58172 16 8 16Z" fill="url(#paint2_linear_1684_26399)"/>
<path d="M6.25781 12.9951C6.25781 12.9951 7.71839 11.7669 9.74329 12.9951" stroke="#5B0600" stroke-width="2" stroke-miterlimit="10" stroke-linecap="round" stroke-linejoin="round"/>
<path d="M4.99786 10.3412C5.41952 10.3412 5.76135 9.78387 5.76135 9.09638C5.76135 8.40888 5.41952 7.85156 4.99786 7.85156C4.5762 7.85156 4.23438 8.40888 4.23438 9.09638C4.23438 9.78387 4.5762 10.3412 4.99786 10.3412Z" fill="black"/>
<path d="M4.05078 7.32031L5.99269 8.66471" stroke="black" stroke-width="2" stroke-miterlimit="10" stroke-linecap="round" stroke-linejoin="round"/>
<path d="M11.7672 9.09638C11.7672 9.77687 11.4353 10.3412 11.0037 10.3412C10.5888 10.3412 10.2402 9.77687 10.2402 9.09638C10.2402 8.41588 10.5722 7.85156 11.0037 7.85156C11.4187 7.85156 11.7672 8.41588 11.7672 9.09638Z" fill="black"/>
<path d="M11.7349 7.32031L9.79297 8.66471" stroke="black" stroke-width="2" stroke-miterlimit="10" stroke-linecap="round" stroke-linejoin="round"/>
<defs>
<linearGradient id="paint0_linear_1684_26399" x1="1.0721" y1="12.0066" x2="14.9376" y2="4.00129" gradientUnits="userSpaceOnUse">
<stop stop-color="#EBB34D"/>
<stop offset="0.033108" stop-color="#ECB64D"/>
<stop offset="0.1781" stop-color="#EEC04F"/>
<stop offset="0.5514" stop-color="#F1CC51"/>
<stop offset="1" stop-color="#F3D652"/>
</linearGradient>
<linearGradient id="paint1_linear_1684_26399" x1="1.06936" y1="11.995" x2="14.9349" y2="3.98976" gradientUnits="userSpaceOnUse">
<stop stop-color="#EBB34D"/>
<stop offset="0.033108" stop-color="#ECB64D"/>
<stop offset="0.1781" stop-color="#EEC04F"/>
<stop offset="0.5514" stop-color="#F1CC51"/>
<stop offset="1" stop-color="#F3D652"/>
</linearGradient>
<linearGradient id="paint2_linear_1684_26399" x1="8.00212" y1="-0.0115353" x2="8.00212" y2="15.9963" gradientUnits="userSpaceOnUse">
<stop stop-color="#DD5F70"/>
<stop offset="0.1619" stop-color="#DD636F" stop-opacity="0.9684"/>
<stop offset="0.6863" stop-color="#EBAA5D" stop-opacity="0.3625"/>
<stop offset="1" stop-color="#F3D652" stop-opacity="0"/>
</linearGradient>
</defs>
</svg>
