<svg width="24" height="24" viewBox="0 0 24 24" fill="none" xmlns="http://www.w3.org/2000/svg">
<path d="M9.86106 18C9.72395 17.9996 9.58838 17.971 9.4628 17.9159C9.33722 17.8609 9.2243 17.7806 9.13106 17.68L4.27106 12.51C4.08939 12.3164 3.99207 12.0586 4.00051 11.7932C4.00469 11.6618 4.0347 11.5325 4.08885 11.4127C4.14299 11.2929 4.2202 11.185 4.31606 11.095C4.41193 11.0051 4.52457 10.9349 4.64756 10.8885C4.77056 10.842 4.90149 10.8203 5.03288 10.8245C5.29825 10.8329 5.54939 10.9464 5.73106 11.14L9.85106 15.53L18.2611 6.33003C18.3464 6.22375 18.4526 6.13605 18.5731 6.0723C18.6935 6.00854 18.8258 5.9701 18.9617 5.95931C19.0975 5.94853 19.2342 5.96564 19.3632 6.00958C19.4922 6.05353 19.6109 6.12339 19.7119 6.21488C19.813 6.30636 19.8943 6.41754 19.9508 6.54158C20.0073 6.66561 20.0378 6.79989 20.0406 6.93617C20.0433 7.07245 20.0181 7.20784 19.9666 7.33404C19.9151 7.46024 19.8384 7.57458 19.7411 7.67003L10.6011 17.67C10.5087 17.7724 10.3962 17.8545 10.2706 17.9113C10.1449 17.9681 10.0089 17.9983 9.87106 18H9.86106Z" fill="#4147D5"/>
</svg>
