<svg width="20" height="21" viewBox="0 0 20 21" fill="none" xmlns="http://www.w3.org/2000/svg">
<g clip-path="url(#clip0_1537_25046)">
<path d="M3.33337 15.6491V12.3158C3.33337 12.0947 3.42117 11.8828 3.57745 11.7265C3.73373 11.5702 3.94569 11.4824 4.16671 11.4824H15.8334C16.0544 11.4824 16.2663 11.5702 16.4226 11.7265C16.5789 11.8828 16.6667 12.0947 16.6667 12.3158V15.6491C16.6667 15.8701 16.5789 16.0821 16.4226 16.2383C16.2663 16.3946 16.0544 16.4824 15.8334 16.4824H4.16671C3.94569 16.4824 3.73373 16.3946 3.57745 16.2383C3.42117 16.0821 3.33337 15.8701 3.33337 15.6491Z" stroke="#FF5252" stroke-width="1.66667" stroke-linecap="round" stroke-linejoin="round"/>
<path d="M10 8.14779V4.81445" stroke="#FF5252" stroke-width="1.66667" stroke-linecap="round" stroke-linejoin="round"/>
<path d="M8.33337 6.48242H11.6667" stroke="#FF5252" stroke-width="1.66667" stroke-linecap="round" stroke-linejoin="round"/>
</g>
<defs>
<clipPath id="clip0_1537_25046">
<rect width="20" height="20" fill="white" transform="translate(0 0.648438)"/>
</clipPath>
</defs>
</svg>
